<svg width="518" height="518" viewBox="0 0 518 518" fill="none" xmlns="http://www.w3.org/2000/svg">
<g clip-path="url(#clip0_70_53)">
<path d="M156.738 86.3403C173.379 86.618 188.683 95.6044 197.024 110.051L356.844 386.866C357.785 388.497 359.525 389.5 361.408 389.5H435.443V431.667H361.408C344.461 431.667 328.801 422.625 320.327 407.949L160.508 131.134C159.625 129.606 158.041 128.627 156.295 128.51L155.944 128.5H84.8721V86.3335H155.944L156.738 86.3403ZM240.646 313.69L193.073 396.089C184.732 410.537 169.427 419.524 152.786 419.801L151.992 419.807H-0.00195312V377.642H151.992L152.344 377.63C154.09 377.514 155.674 376.535 156.557 375.006L217.302 269.791L240.646 313.69ZM518 96.8745V139.041H366.006L365.654 139.052C363.908 139.169 362.324 140.147 361.441 141.675L300.696 246.891L277.352 202.993L324.925 120.593C333.266 106.146 348.571 97.1589 365.212 96.8813L366.006 96.8745H518Z" fill="white"/>
</g>
<defs>
<clipPath id="clip0_70_53">
<rect width="518" height="518" fill="white"/>
</clipPath>
</defs>
</svg>
